solid Drawer_Body
  facet normal -0.3250575363636017 -0.3250575363636017 -0.8880738019943237
    outer loop
      vertex -0.08823537826538086 -0.08823537826538086 -0.5
      vertex -0.08823537826538086 -0.3793969452381134 -0.3793969452381134
      vertex -0.32596781849861145 -0.32596781849861145 -0.32596781849861145
      vertex -0.3793969452381134 -0.08823537826538086 -0.3793969452381134
    endloop
  endfacet
  facet normal -0.3250575363636017 -0.8880738615989685 -0.3250575363636017
    outer loop
      vertex -0.08823537826538086 -0.5 -0.08823537826538086
      vertex -0.3793969452381134 -0.3793969452381134 -0.08823537826538086
      vertex -0.32596781849861145 -0.32596781849861145 -0.32596781849861145
      vertex -0.08823537826538086 -0.3793969452381134 -0.3793969452381134
    endloop
  endfacet
  facet normal -0.8880738615989685 -0.3250575363636017 -0.3250575363636017
    outer loop
      vertex -0.5 -0.08823537826538086 -0.08823537826538086
      vertex -0.3793969452381134 -0.08823537826538086 -0.3793969452381134
      vertex -0.32596781849861145 -0.32596781849861145 -0.32596781849861145
      vertex -0.3793969452381134 -0.3793969452381134 -0.08823537826538086
    endloop
  endfacet
  facet normal 0.3250575363636017 0.8880738019943237 0.3250574767589569
    outer loop
      vertex -0.07037821412086487 -0.4117646813392639 -0.0038603544235229492
      vertex -0.07037822902202606 -0.2911616265773773 -0.2950219511985779
      vertex -0.30811065435409546 -0.23773249983787537 -0.24159280955791473
      vertex -0.3615397810935974 -0.2911616265773773 -0.003860369324684143
    endloop
  endfacet
  facet normal 0.3250575065612793 0.3250574767589569 0.8880738615989685
    outer loop
      vertex -0.07037824392318726 -5.960464477539063e-08 -0.4156249761581421
      vertex -0.3615397810935974 -5.960464477539063e-08 -0.2950219511985779
      vertex -0.30811065435409546 -0.23773249983787537 -0.24159280955791473
      vertex -0.07037822902202606 -0.2911616265773773 -0.2950219511985779
    endloop
  endfacet
  facet normal 0.8880738019943237 0.3250575363636017 0.3250575363636017
    outer loop
      vertex -0.482142835855484 -5.960464477539063e-08 -0.003860384225845337
      vertex -0.3615397810935974 -0.2911616265773773 -0.003860369324684143
      vertex -0.30811065435409546 -0.23773249983787537 -0.24159280955791473
      vertex -0.3615397810935974 -5.960464477539063e-08 -0.2950219511985779
    endloop
  endfacet
  facet normal -0.3250575363636017 -0.8880738615989685 0.3250575363636017
    outer loop
      vertex -0.08823537826538086 -0.5 0.08823537826538086
      vertex -0.08823537826538086 -0.3793969452381134 0.3793969452381134
      vertex -0.32596781849861145 -0.32596781849861145 0.32596781849861145
      vertex -0.3793969452381134 -0.3793969452381134 0.08823537826538086
    endloop
  endfacet
  facet normal -0.3250575363636017 -0.3250575363636017 0.8880738019943237
    outer loop
      vertex -0.08823537826538086 -0.08823537826538086 0.5
      vertex -0.3793969452381134 -0.08823537826538086 0.3793969452381134
      vertex -0.32596781849861145 -0.32596781849861145 0.32596781849861145
      vertex -0.08823537826538086 -0.3793969452381134 0.3793969452381134
    endloop
  endfacet
  facet normal -0.8880738615989685 -0.3250575363636017 0.3250575363636017
    outer loop
      vertex -0.5 -0.08823537826538086 0.08823537826538086
      vertex -0.3793969452381134 -0.3793969452381134 0.08823537826538086
      vertex -0.32596781849861145 -0.32596781849861145 0.32596781849861145
      vertex -0.3793969452381134 -0.08823537826538086 0.3793969452381134
    endloop
  endfacet
  facet normal 0.32505762577056885 0.8880738019943237 -0.3250575661659241
    outer loop
      vertex -0.07037818431854248 -0.4117646813392639 0.078860342502594
      vertex -0.36153972148895264 -0.29116159677505493 0.0788603127002716
      vertex -0.3081105947494507 -0.23773248493671417 0.3165927529335022
      vertex -0.07037816941738129 -0.29116159677505493 0.37002187967300415
    endloop
  endfacet
  facet normal 0.8880738019943237 0.32505762577056885 -0.32505759596824646
    outer loop
      vertex -0.482142835855484 -5.960464477539063e-08 0.0788603127002716
      vertex -0.36153972148895264 -4.470348358154297e-08 0.37002187967300415
      vertex -0.3081105947494507 -0.23773248493671417 0.3165927529335022
      vertex -0.36153972148895264 -0.29116159677505493 0.0788603127002716
    endloop
  endfacet
  facet normal 0.32505759596824646 0.32505759596824646 -0.8880738019943237
    outer loop
      vertex -0.07037821412086487 -2.9802322387695312e-08 0.49062496423721313
      vertex -0.07037816941738129 -0.29116159677505493 0.37002187967300415
      vertex -0.3081105947494507 -0.23773248493671417 0.3165927529335022
      vertex -0.36153972148895264 -4.470348358154297e-08 0.37002187967300415
    endloop
  endfacet
  facet normal -0.3250575363636017 0.3250575363636017 -0.8880738019943237
    outer loop
      vertex -0.08823537826538086 0.08823537826538086 -0.5
      vertex -0.3793969452381134 0.08823537826538086 -0.3793969452381134
      vertex -0.32596781849861145 0.32596781849861145 -0.32596781849861145
      vertex -0.08823537826538086 0.3793969452381134 -0.3793969452381134
    endloop
  endfacet
  facet normal -0.8880738615989685 0.3250575363636017 -0.3250575363636017
    outer loop
      vertex -0.5 0.08823537826538086 -0.08823537826538086
      vertex -0.3793969452381134 0.3793969452381134 -0.08823537826538086
      vertex -0.32596781849861145 0.32596781849861145 -0.32596781849861145
      vertex -0.3793969452381134 0.08823537826538086 -0.3793969452381134
    endloop
  endfacet
  facet normal -0.3250575363636017 0.8880738615989685 -0.3250575363636017
    outer loop
      vertex -0.08823537826538086 0.5 -0.08823537826538086
      vertex -0.08823537826538086 0.3793969452381134 -0.3793969452381134
      vertex -0.32596781849861145 0.32596781849861145 -0.32596781849861145
      vertex -0.3793969452381134 0.3793969452381134 -0.08823537826538086
    endloop
  endfacet
  facet normal 0.3250574767589569 -0.3250575363636017 0.8880739212036133
    outer loop
      vertex -0.07037821412086487 2.9802322387695312e-08 -0.4156249761581421
      vertex -0.07037819921970367 0.29116159677505493 -0.2950219213962555
      vertex -0.30811065435409546 0.23773248493671417 -0.24159279465675354
      vertex -0.3615397810935974 4.470348358154297e-08 -0.2950219213962555
    endloop
  endfacet
  facet normal 0.3250575065612793 -0.8880738615989685 0.3250575065612793
    outer loop
      vertex -0.07037818431854248 0.4117646813392639 -0.0038603544235229492
      vertex -0.3615397810935974 0.29116159677505493 -0.0038603544235229492
      vertex -0.30811065435409546 0.23773248493671417 -0.24159279465675354
      vertex -0.07037819921970367 0.29116159677505493 -0.2950219213962555
    endloop
  endfacet
  facet normal 0.8880738615989685 -0.3250575363636017 0.3250575065612793
    outer loop
      vertex -0.482142835855484 5.960464477539063e-08 -0.0038603544235229492
      vertex -0.3615397810935974 4.470348358154297e-08 -0.2950219213962555
      vertex -0.30811065435409546 0.23773248493671417 -0.24159279465675354
      vertex -0.3615397810935974 0.29116159677505493 -0.0038603544235229492
    endloop
  endfacet
  facet normal -0.3250575363636017 0.3250575363636017 0.8880738019943237
    outer loop
      vertex -0.08823537826538086 0.08823537826538086 0.5
      vertex -0.08823537826538086 0.3793969452381134 0.3793969452381134
      vertex -0.32596781849861145 0.32596781849861145 0.32596781849861145
      vertex -0.3793969452381134 0.08823537826538086 0.3793969452381134
    endloop
  endfacet
  facet normal -0.3250575363636017 0.8880738615989685 0.3250575363636017
    outer loop
      vertex -0.08823537826538086 0.5 0.08823537826538086
      vertex -0.3793969452381134 0.3793969452381134 0.08823537826538086
      vertex -0.32596781849861145 0.32596781849861145 0.32596781849861145
      vertex -0.08823537826538086 0.3793969452381134 0.3793969452381134
    endloop
  endfacet
  facet normal -0.8880738615989685 0.3250575363636017 0.3250575363636017
    outer loop
      vertex -0.5 0.08823537826538086 0.08823537826538086
      vertex -0.3793969452381134 0.08823537826538086 0.3793969452381134
      vertex -0.32596781849861145 0.32596781849861145 0.32596781849861145
      vertex -0.3793969452381134 0.3793969452381134 0.08823537826538086
    endloop
  endfacet
  facet normal 0.3250575363636017 -0.8880738615989685 -0.3250575065612793
    outer loop
      vertex -0.07037821412086487 0.4117646813392639 0.078860342502594
      vertex -0.07037822902202606 0.2911616265773773 0.3700219392776489
      vertex -0.30811065435409546 0.23773249983787537 0.316592812538147
      vertex -0.3615397810935974 0.2911616265773773 0.07886037230491638
    endloop
  endfacet
  facet normal 0.3250574767589569 -0.3250574469566345 -0.8880738615989685
    outer loop
      vertex -0.07037824392318726 5.960464477539063e-08 0.49062496423721313
      vertex -0.3615397810935974 5.960464477539063e-08 0.3700219392776489
      vertex -0.30811065435409546 0.23773249983787537 0.316592812538147
      vertex -0.07037822902202606 0.2911616265773773 0.3700219392776489
    endloop
  endfacet
  facet normal 0.8880738615989685 -0.3250575363636017 -0.3250575363636017
    outer loop
      vertex -0.482142835855484 5.960464477539063e-08 0.07886037230491638
      vertex -0.3615397810935974 0.2911616265773773 0.07886037230491638
      vertex -0.30811065435409546 0.23773249983787537 0.316592812538147
      vertex -0.3615397810935974 5.960464477539063e-08 0.3700219392776489
    endloop
  endfacet
  facet normal 0.3250575363636017 -0.3250575363636017 -0.8880738019943237
    outer loop
      vertex 0.08823537826538086 -0.08823537826538086 -0.5
      vertex 0.3793969452381134 -0.08823537826538086 -0.3793969452381134
      vertex 0.32596781849861145 -0.32596781849861145 -0.32596781849861145
      vertex 0.08823537826538086 -0.3793969452381134 -0.3793969452381134
    endloop
  endfacet
  facet normal 0.8880738615989685 -0.3250575363636017 -0.3250575363636017
    outer loop
      vertex 0.5 -0.08823537826538086 -0.08823537826538086
      vertex 0.3793969452381134 -0.3793969452381134 -0.08823537826538086
      vertex 0.32596781849861145 -0.32596781849861145 -0.32596781849861145
      vertex 0.3793969452381134 -0.08823537826538086 -0.3793969452381134
    endloop
  endfacet
  facet normal 0.3250575363636017 -0.8880738615989685 -0.3250575363636017
    outer loop
      vertex 0.08823537826538086 -0.5 -0.08823537826538086
      vertex 0.08823537826538086 -0.3793969452381134 -0.3793969452381134
      vertex 0.32596781849861145 -0.32596781849861145 -0.32596781849861145
      vertex 0.3793969452381134 -0.3793969452381134 -0.08823537826538086
    endloop
  endfacet
  facet normal -0.3250574767589569 0.3250575363636017 0.8880739212036133
    outer loop
      vertex 0.07037821412086487 -2.9802322387695312e-08 -0.4156249761581421
      vertex 0.07037819921970367 -0.29116159677505493 -0.2950219213962555
      vertex 0.30811065435409546 -0.23773248493671417 -0.24159279465675354
      vertex 0.3615397810935974 -4.470348358154297e-08 -0.2950219213962555
    endloop
  endfacet
  facet normal -0.3250575065612793 0.8880738615989685 0.3250575065612793
    outer loop
      vertex 0.07037818431854248 -0.4117646813392639 -0.0038603544235229492
      vertex 0.3615397810935974 -0.29116159677505493 -0.0038603544235229492
      vertex 0.30811065435409546 -0.23773248493671417 -0.24159279465675354
      vertex 0.07037819921970367 -0.29116159677505493 -0.2950219213962555
    endloop
  endfacet
  facet normal -0.8880738615989685 0.3250575363636017 0.3250575065612793
    outer loop
      vertex 0.482142835855484 -5.960464477539063e-08 -0.0038603544235229492
      vertex 0.3615397810935974 -4.470348358154297e-08 -0.2950219213962555
      vertex 0.30811065435409546 -0.23773248493671417 -0.24159279465675354
      vertex 0.3615397810935974 -0.29116159677505493 -0.0038603544235229492
    endloop
  endfacet
  facet normal 0.3250575363636017 -0.3250575363636017 0.8880738019943237
    outer loop
      vertex 0.08823537826538086 -0.08823537826538086 0.5
      vertex 0.08823537826538086 -0.3793969452381134 0.3793969452381134
      vertex 0.32596781849861145 -0.32596781849861145 0.32596781849861145
      vertex 0.3793969452381134 -0.08823537826538086 0.3793969452381134
    endloop
  endfacet
  facet normal 0.3250575363636017 -0.8880738615989685 0.3250575363636017
    outer loop
      vertex 0.08823537826538086 -0.5 0.08823537826538086
      vertex 0.3793969452381134 -0.3793969452381134 0.08823537826538086
      vertex 0.32596781849861145 -0.32596781849861145 0.32596781849861145
      vertex 0.08823537826538086 -0.3793969452381134 0.3793969452381134
    endloop
  endfacet
  facet normal 0.8880738615989685 -0.3250575363636017 0.3250575363636017
    outer loop
      vertex 0.5 -0.08823537826538086 0.08823537826538086
      vertex 0.3793969452381134 -0.08823537826538086 0.3793969452381134
      vertex 0.32596781849861145 -0.32596781849861145 0.32596781849861145
      vertex 0.3793969452381134 -0.3793969452381134 0.08823537826538086
    endloop
  endfacet
  facet normal -0.3250575363636017 0.8880738615989685 -0.3250575065612793
    outer loop
      vertex 0.07037821412086487 -0.4117646813392639 0.078860342502594
      vertex 0.07037822902202606 -0.2911616265773773 0.3700219392776489
      vertex 0.30811065435409546 -0.23773249983787537 0.316592812538147
      vertex 0.3615397810935974 -0.2911616265773773 0.07886037230491638
    endloop
  endfacet
  facet normal -0.3250574767589569 0.3250574469566345 -0.8880738615989685
    outer loop
      vertex 0.07037824392318726 -5.960464477539063e-08 0.49062496423721313
      vertex 0.3615397810935974 -5.960464477539063e-08 0.3700219392776489
      vertex 0.30811065435409546 -0.23773249983787537 0.316592812538147
      vertex 0.07037822902202606 -0.2911616265773773 0.3700219392776489
    endloop
  endfacet
  facet normal -0.8880738615989685 0.3250575363636017 -0.3250575363636017
    outer loop
      vertex 0.482142835855484 -5.960464477539063e-08 0.07886037230491638
      vertex 0.3615397810935974 -0.2911616265773773 0.07886037230491638
      vertex 0.30811065435409546 -0.23773249983787537 0.316592812538147
      vertex 0.3615397810935974 -5.960464477539063e-08 0.3700219392776489
    endloop
  endfacet
  facet normal 0.3250575363636017 0.3250575363636017 -0.8880738019943237
    outer loop
      vertex 0.08823537826538086 0.08823537826538086 -0.5
      vertex 0.08823537826538086 0.3793969452381134 -0.3793969452381134
      vertex 0.32596781849861145 0.32596781849861145 -0.32596781849861145
      vertex 0.3793969452381134 0.08823537826538086 -0.3793969452381134
    endloop
  endfacet
  facet normal 0.3250575363636017 0.8880738615989685 -0.3250575363636017
    outer loop
      vertex 0.08823537826538086 0.5 -0.08823537826538086
      vertex 0.3793969452381134 0.3793969452381134 -0.08823537826538086
      vertex 0.32596781849861145 0.32596781849861145 -0.32596781849861145
      vertex 0.08823537826538086 0.3793969452381134 -0.3793969452381134
    endloop
  endfacet
  facet normal 0.8880738615989685 0.3250575363636017 -0.3250575363636017
    outer loop
      vertex 0.5 0.08823537826538086 -0.08823537826538086
      vertex 0.3793969452381134 0.08823537826538086 -0.3793969452381134
      vertex 0.32596781849861145 0.32596781849861145 -0.32596781849861145
      vertex 0.3793969452381134 0.3793969452381134 -0.08823537826538086
    endloop
  endfacet
  facet normal -0.3250575065612793 -0.3250574767589569 0.8880738615989685
    outer loop
      vertex 0.07037824392318726 5.960464477539063e-08 -0.4156249761581421
      vertex 0.3615397810935974 5.960464477539063e-08 -0.2950219511985779
      vertex 0.30811065435409546 0.23773249983787537 -0.24159280955791473
      vertex 0.07037822902202606 0.2911616265773773 -0.2950219511985779
    endloop
  endfacet
  facet normal -0.8880738019943237 -0.3250575363636017 0.3250575363636017
    outer loop
      vertex 0.482142835855484 5.960464477539063e-08 -0.003860384225845337
      vertex 0.3615397810935974 0.2911616265773773 -0.003860369324684143
      vertex 0.30811065435409546 0.23773249983787537 -0.24159280955791473
      vertex 0.3615397810935974 5.960464477539063e-08 -0.2950219511985779
    endloop
  endfacet
  facet normal -0.3250575363636017 -0.8880738019943237 0.3250574767589569
    outer loop
      vertex 0.07037821412086487 0.4117646813392639 -0.0038603544235229492
      vertex 0.07037822902202606 0.2911616265773773 -0.2950219511985779
      vertex 0.30811065435409546 0.23773249983787537 -0.24159280955791473
      vertex 0.3615397810935974 0.2911616265773773 -0.003860369324684143
    endloop
  endfacet
  facet normal 0.3250575363636017 0.3250575363636017 0.8880738019943237
    outer loop
      vertex 0.08823537826538086 0.08823537826538086 0.5
      vertex 0.3793969452381134 0.08823537826538086 0.3793969452381134
      vertex 0.32596781849861145 0.32596781849861145 0.32596781849861145
      vertex 0.08823537826538086 0.3793969452381134 0.3793969452381134
    endloop
  endfacet
  facet normal 0.8880738615989685 0.3250575363636017 0.3250575363636017
    outer loop
      vertex 0.5 0.08823537826538086 0.08823537826538086
      vertex 0.3793969452381134 0.3793969452381134 0.08823537826538086
      vertex 0.32596781849861145 0.32596781849861145 0.32596781849861145
      vertex 0.3793969452381134 0.08823537826538086 0.3793969452381134
    endloop
  endfacet
  facet normal 0.3250575363636017 0.8880738615989685 0.3250575363636017
    outer loop
      vertex 0.08823537826538086 0.5 0.08823537826538086
      vertex 0.08823537826538086 0.3793969452381134 0.3793969452381134
      vertex 0.32596781849861145 0.32596781849861145 0.32596781849861145
      vertex 0.3793969452381134 0.3793969452381134 0.08823537826538086
    endloop
  endfacet
  facet normal -0.8880738615989685 -0.3250575363636017 -0.3250575065612793
    outer loop
      vertex 0.482142835855484 5.960464477539063e-08 0.0788603127002716
      vertex 0.3615397810935974 4.470348358154297e-08 0.37002190947532654
      vertex 0.30811065435409546 0.23773248493671417 0.3165927827358246
      vertex 0.3615397810935974 0.29116159677505493 0.078860342502594
    endloop
  endfacet
  facet normal -0.3250574767589569 -0.3250575363636017 -0.8880739212036133
    outer loop
      vertex 0.07037821412086487 2.9802322387695312e-08 0.49062496423721313
      vertex 0.07037819921970367 0.29116159677505493 0.37002190947532654
      vertex 0.30811065435409546 0.23773248493671417 0.3165927827358246
      vertex 0.3615397810935974 4.470348358154297e-08 0.37002190947532654
    endloop
  endfacet
  facet normal -0.3250575065612793 -0.8880738615989685 -0.3250575065612793
    outer loop
      vertex 0.07037818431854248 0.4117646813392639 0.078860342502594
      vertex 0.3615397810935974 0.29116159677505493 0.078860342502594
      vertex 0.30811065435409546 0.23773248493671417 0.3165927827358246
      vertex 0.07037819921970367 0.29116159677505493 0.37002190947532654
    endloop
  endfacet
  facet normal -0.9238795638084412 0.0 -0.3826834261417389
    outer loop
      vertex -0.5 -0.08823537826538086 -0.08823537826538086
      vertex -0.5 0.08823537826538086 -0.08823537826538086
      vertex -0.3793969452381134 0.08823537826538086 -0.3793969452381134
      vertex -0.3793969452381134 -0.08823537826538086 -0.3793969452381134
    endloop
  endfacet
  facet normal -0.3826834261417389 0.0 -0.9238795638084412
    outer loop
      vertex -0.3793969452381134 -0.08823537826538086 -0.3793969452381134
      vertex -0.3793969452381134 0.08823537826538086 -0.3793969452381134
      vertex -0.08823537826538086 0.08823537826538086 -0.5
      vertex -0.08823537826538086 -0.08823537826538086 -0.5
    endloop
  endfacet
  facet normal -0.3826834261417389 -0.9238795638084412 0.0
    outer loop
      vertex -0.08823537826538086 -0.5 -0.08823537826538086
      vertex -0.08823537826538086 -0.5 0.08823537826538086
      vertex -0.3793969452381134 -0.3793969452381134 0.08823537826538086
      vertex -0.3793969452381134 -0.3793969452381134 -0.08823537826538086
    endloop
  endfacet
  facet normal -0.9238795638084412 -0.3826834261417389 0.0
    outer loop
      vertex -0.3793969452381134 -0.3793969452381134 -0.08823537826538086
      vertex -0.3793969452381134 -0.3793969452381134 0.08823537826538086
      vertex -0.5 -0.08823537826538086 0.08823537826538086
      vertex -0.5 -0.08823537826538086 -0.08823537826538086
    endloop
  endfacet
  facet normal -0.3826834261417389 0.0 0.9238795638084412
    outer loop
      vertex -0.08823537826538086 -0.08823537826538086 0.5
      vertex -0.08823537826538086 0.08823537826538086 0.5
      vertex -0.3793969452381134 0.08823537826538086 0.3793969452381134
      vertex -0.3793969452381134 -0.08823537826538086 0.3793969452381134
    endloop
  endfacet
  facet normal -0.9238795638084412 0.0 0.3826834261417389
    outer loop
      vertex -0.3793969452381134 -0.08823537826538086 0.3793969452381134
      vertex -0.3793969452381134 0.08823537826538086 0.3793969452381134
      vertex -0.5 0.08823537826538086 0.08823537826538086
      vertex -0.5 -0.08823537826538086 0.08823537826538086
    endloop
  endfacet
  facet normal -0.9238795638084412 0.3826834261417389 0.0
    outer loop
      vertex -0.5 0.08823537826538086 -0.08823537826538086
      vertex -0.5 0.08823537826538086 0.08823537826538086
      vertex -0.3793969452381134 0.3793969452381134 0.08823537826538086
      vertex -0.3793969452381134 0.3793969452381134 -0.08823537826538086
    endloop
  endfacet
  facet normal -0.3826834261417389 0.9238795638084412 0.0
    outer loop
      vertex -0.3793969452381134 0.3793969452381134 -0.08823537826538086
      vertex -0.3793969452381134 0.3793969452381134 0.08823537826538086
      vertex -0.08823537826538086 0.5 0.08823537826538086
      vertex -0.08823537826538086 0.5 -0.08823537826538086
    endloop
  endfacet
  facet normal 0.0 0.9238795638084412 -0.3826834261417389
    outer loop
      vertex -0.08823537826538086 0.5 -0.08823537826538086
      vertex 0.08823537826538086 0.5 -0.08823537826538086
      vertex 0.08823537826538086 0.3793969452381134 -0.3793969452381134
      vertex -0.08823537826538086 0.3793969452381134 -0.3793969452381134
    endloop
  endfacet
  facet normal 0.0 0.3826834261417389 -0.9238795638084412
    outer loop
      vertex -0.08823537826538086 0.3793969452381134 -0.3793969452381134
      vertex 0.08823537826538086 0.3793969452381134 -0.3793969452381134
      vertex 0.08823537826538086 0.08823537826538086 -0.5
      vertex -0.08823537826538086 0.08823537826538086 -0.5
    endloop
  endfacet
  facet normal 0.0 0.3826834261417389 0.9238795638084412
    outer loop
      vertex -0.08823537826538086 0.08823537826538086 0.5
      vertex 0.08823537826538086 0.08823537826538086 0.5
      vertex 0.08823537826538086 0.3793969452381134 0.3793969452381134
      vertex -0.08823537826538086 0.3793969452381134 0.3793969452381134
    endloop
  endfacet
  facet normal 0.0 0.9238795638084412 0.3826834261417389
    outer loop
      vertex -0.08823537826538086 0.3793969452381134 0.3793969452381134
      vertex 0.08823537826538086 0.3793969452381134 0.3793969452381134
      vertex 0.08823537826538086 0.5 0.08823537826538086
      vertex -0.08823537826538086 0.5 0.08823537826538086
    endloop
  endfacet
  facet normal 0.3826834261417389 0.9238795638084412 0.0
    outer loop
      vertex 0.08823537826538086 0.5 -0.08823537826538086
      vertex 0.08823537826538086 0.5 0.08823537826538086
      vertex 0.3793969452381134 0.3793969452381134 0.08823537826538086
      vertex 0.3793969452381134 0.3793969452381134 -0.08823537826538086
    endloop
  endfacet
  facet normal 0.9238795638084412 0.3826834261417389 0.0
    outer loop
      vertex 0.3793969452381134 0.3793969452381134 -0.08823537826538086
      vertex 0.3793969452381134 0.3793969452381134 0.08823537826538086
      vertex 0.5 0.08823537826538086 0.08823537826538086
      vertex 0.5 0.08823537826538086 -0.08823537826538086
    endloop
  endfacet
  facet normal 0.3826834261417389 0.0 -0.9238795638084412
    outer loop
      vertex 0.08823537826538086 -0.08823537826538086 -0.5
      vertex 0.08823537826538086 0.08823537826538086 -0.5
      vertex 0.3793969452381134 0.08823537826538086 -0.3793969452381134
      vertex 0.3793969452381134 -0.08823537826538086 -0.3793969452381134
    endloop
  endfacet
  facet normal 0.9238795638084412 0.0 -0.3826834261417389
    outer loop
      vertex 0.3793969452381134 -0.08823537826538086 -0.3793969452381134
      vertex 0.3793969452381134 0.08823537826538086 -0.3793969452381134
      vertex 0.5 0.08823537826538086 -0.08823537826538086
      vertex 0.5 -0.08823537826538086 -0.08823537826538086
    endloop
  endfacet
  facet normal 0.9238795638084412 0.0 0.3826834261417389
    outer loop
      vertex 0.5 -0.08823537826538086 0.08823537826538086
      vertex 0.5 0.08823537826538086 0.08823537826538086
      vertex 0.3793969452381134 0.08823537826538086 0.3793969452381134
      vertex 0.3793969452381134 -0.08823537826538086 0.3793969452381134
    endloop
  endfacet
  facet normal 0.3826834261417389 0.0 0.9238795638084412
    outer loop
      vertex 0.3793969452381134 -0.08823537826538086 0.3793969452381134
      vertex 0.3793969452381134 0.08823537826538086 0.3793969452381134
      vertex 0.08823537826538086 0.08823537826538086 0.5
      vertex 0.08823537826538086 -0.08823537826538086 0.5
    endloop
  endfacet
  facet normal 0.9238795638084412 -0.3826834261417389 0.0
    outer loop
      vertex 0.5 -0.08823537826538086 -0.08823537826538086
      vertex 0.5 -0.08823537826538086 0.08823537826538086
      vertex 0.3793969452381134 -0.3793969452381134 0.08823537826538086
      vertex 0.3793969452381134 -0.3793969452381134 -0.08823537826538086
    endloop
  endfacet
  facet normal 0.3826834261417389 -0.9238795638084412 0.0
    outer loop
      vertex 0.3793969452381134 -0.3793969452381134 -0.08823537826538086
      vertex 0.3793969452381134 -0.3793969452381134 0.08823537826538086
      vertex 0.08823537826538086 -0.5 0.08823537826538086
      vertex 0.08823537826538086 -0.5 -0.08823537826538086
    endloop
  endfacet
  facet normal 0.0 -0.3826834261417389 -0.9238795638084412
    outer loop
      vertex -0.08823537826538086 -0.08823537826538086 -0.5
      vertex 0.08823537826538086 -0.08823537826538086 -0.5
      vertex 0.08823537826538086 -0.3793969452381134 -0.3793969452381134
      vertex -0.08823537826538086 -0.3793969452381134 -0.3793969452381134
    endloop
  endfacet
  facet normal 0.0 -0.9238795638084412 -0.3826834261417389
    outer loop
      vertex -0.08823537826538086 -0.3793969452381134 -0.3793969452381134
      vertex 0.08823537826538086 -0.3793969452381134 -0.3793969452381134
      vertex 0.08823537826538086 -0.5 -0.08823537826538086
      vertex -0.08823537826538086 -0.5 -0.08823537826538086
    endloop
  endfacet
  facet normal 0.0 -0.9238795638084412 0.3826834261417389
    outer loop
      vertex -0.08823537826538086 -0.5 0.08823537826538086
      vertex 0.08823537826538086 -0.5 0.08823537826538086
      vertex 0.08823537826538086 -0.3793969452381134 0.3793969452381134
      vertex -0.08823537826538086 -0.3793969452381134 0.3793969452381134
    endloop
  endfacet
  facet normal 0.0 -0.3826834261417389 0.9238795638084412
    outer loop
      vertex -0.08823537826538086 -0.3793969452381134 0.3793969452381134
      vertex 0.08823537826538086 -0.3793969452381134 0.3793969452381134
      vertex 0.08823537826538086 -0.08823537826538086 0.5
      vertex -0.08823537826538086 -0.08823537826538086 0.5
    endloop
  endfacet
  facet normal 0.9238795042037964 0.38268348574638367 -4.2869510252785403e-07
    outer loop
      vertex -0.482142835855484 -5.960464477539063e-08 -0.003860384225845337
      vertex -0.482142835855484 -5.960464477539063e-08 0.0788603127002716
      vertex -0.36153972148895264 -0.29116159677505493 0.0788603127002716
      vertex -0.3615397810935974 -0.2911616265773773 -0.003860369324684143
    endloop
  endfacet
  facet normal 0.3826834559440613 0.9238795638084412 -3.57245937721018e-07
    outer loop
      vertex -0.3615397810935974 -0.2911616265773773 -0.003860369324684143
      vertex -0.36153972148895264 -0.29116159677505493 0.0788603127002716
      vertex -0.07037818431854248 -0.4117646813392639 0.078860342502594
      vertex -0.07037821412086487 -0.4117646813392639 -0.0038603544235229492
    endloop
  endfacet
  facet normal 0.37642791867256165 -0.18007004261016846 0.9087775349617004
    outer loop
      vertex -0.07037824392318726 -5.960464477539063e-08 -0.4156249761581421
      vertex -0.07037821412086487 2.9802322387695312e-08 -0.4156249761581421
      vertex -0.3615397810935974 4.470348358154297e-08 -0.2950219213962555
      vertex -0.3615397810935974 -5.960464477539063e-08 -0.2950219511985779
    endloop
  endfacet
  facet normal 0.9187546968460083 -0.10518268495798111 0.38056057691574097
    outer loop
      vertex -0.3615397810935974 -5.960464477539063e-08 -0.2950219511985779
      vertex -0.3615397810935974 4.470348358154297e-08 -0.2950219213962555
      vertex -0.482142835855484 5.960464477539063e-08 -0.0038603544235229492
      vertex -0.482142835855484 -5.960464477539063e-08 -0.003860384225845337
    endloop
  endfacet
  facet normal 0.3826834559440613 -0.9238795638084412 2.1434749442050816e-07
    outer loop
      vertex -0.07037818431854248 0.4117646813392639 -0.0038603544235229492
      vertex -0.07037821412086487 0.4117646813392639 0.078860342502594
      vertex -0.3615397810935974 0.2911616265773773 0.07886037230491638
      vertex -0.3615397810935974 0.29116159677505493 -0.0038603544235229492
    endloop
  endfacet
  facet normal 0.9238795638084412 -0.3826833963394165 7.14491577014087e-08
    outer loop
      vertex -0.3615397810935974 0.29116159677505493 -0.0038603544235229492
      vertex -0.3615397810935974 0.2911616265773773 0.07886037230491638
      vertex -0.482142835855484 5.960464477539063e-08 0.07886037230491638
      vertex -0.482142835855484 5.960464477539063e-08 -0.0038603544235229492
    endloop
  endfacet
  facet normal 0.8342082500457764 0.42976561188697815 -0.3455404043197632
    outer loop
      vertex -0.482142835855484 -5.960464477539063e-08 0.0788603127002716
      vertex -0.482142835855484 5.960464477539063e-08 0.07886037230491638
      vertex -0.3615397810935974 5.960464477539063e-08 0.3700219392776489
      vertex -0.36153972148895264 -4.470348358154297e-08 0.37002187967300415
    endloop
  endfacet
  facet normal 0.3519229590892792 0.3928113579750061 -0.8496172428131104
    outer loop
      vertex -0.36153972148895264 -4.470348358154297e-08 0.37002187967300415
      vertex -0.3615397810935974 5.960464477539063e-08 0.3700219392776489
      vertex -0.07037824392318726 5.960464477539063e-08 0.49062496423721313
      vertex -0.07037821412086487 -2.9802322387695312e-08 0.49062496423721313
    endloop
  endfacet
  facet normal 1.679589587411101e-07 -0.3826833665370941 0.9238795638084412
    outer loop
      vertex -0.07037821412086487 2.9802322387695312e-08 -0.4156249761581421
      vertex 0.07037824392318726 5.960464477539063e-08 -0.4156249761581421
      vertex 0.07037822902202606 0.2911616265773773 -0.2950219511985779
      vertex -0.07037819921970367 0.29116159677505493 -0.2950219213962555
    endloop
  endfacet
  facet normal 1.2596923681940098e-07 -0.9238795638084412 0.3826834559440613
    outer loop
      vertex -0.07037819921970367 0.29116159677505493 -0.2950219213962555
      vertex 0.07037822902202606 0.2911616265773773 -0.2950219511985779
      vertex 0.07037821412086487 0.4117646813392639 -0.0038603544235229492
      vertex -0.07037818431854248 0.4117646813392639 -0.0038603544235229492
    endloop
  endfacet
  facet normal -0.9238795042037964 -0.3826833665370941 -7.144917191226341e-08
    outer loop
      vertex 0.482142835855484 5.960464477539063e-08 -0.003860384225845337
      vertex 0.482142835855484 5.960464477539063e-08 0.0788603127002716
      vertex 0.3615397810935974 0.29116159677505493 0.078860342502594
      vertex 0.3615397810935974 0.2911616265773773 -0.003860369324684143
    endloop
  endfacet
  facet normal -0.3826833963394165 -0.9238795042037964 -2.1434752284221759e-07
    outer loop
      vertex 0.3615397810935974 0.2911616265773773 -0.003860369324684143
      vertex 0.3615397810935974 0.29116159677505493 0.078860342502594
      vertex 0.07037818431854248 0.4117646813392639 0.078860342502594
      vertex 0.07037821412086487 0.4117646813392639 -0.0038603544235229492
    endloop
  endfacet
  facet normal -1.2596923681940098e-07 -0.9238795638084412 -0.3826834559440613
    outer loop
      vertex -0.07037821412086487 0.4117646813392639 0.078860342502594
      vertex 0.07037818431854248 0.4117646813392639 0.078860342502594
      vertex 0.07037819921970367 0.29116159677505493 0.37002190947532654
      vertex -0.07037822902202606 0.2911616265773773 0.3700219392776489
    endloop
  endfacet
  facet normal -1.679589587411101e-07 -0.3826833665370941 -0.9238795638084412
    outer loop
      vertex -0.07037822902202606 0.2911616265773773 0.3700219392776489
      vertex 0.07037819921970367 0.29116159677505493 0.37002190947532654
      vertex 0.07037821412086487 2.9802322387695312e-08 0.49062496423721313
      vertex -0.07037824392318726 5.960464477539063e-08 0.49062496423721313
    endloop
  endfacet
  facet normal -0.9187546968460083 0.10518268495798111 0.38056057691574097
    outer loop
      vertex 0.482142835855484 -5.960464477539063e-08 -0.0038603544235229492
      vertex 0.482142835855484 5.960464477539063e-08 -0.003860384225845337
      vertex 0.3615397810935974 5.960464477539063e-08 -0.2950219511985779
      vertex 0.3615397810935974 -4.470348358154297e-08 -0.2950219213962555
    endloop
  endfacet
  facet normal -0.37642791867256165 0.18007004261016846 0.9087775349617004
    outer loop
      vertex 0.3615397810935974 -4.470348358154297e-08 -0.2950219213962555
      vertex 0.3615397810935974 5.960464477539063e-08 -0.2950219511985779
      vertex 0.07037824392318726 5.960464477539063e-08 -0.4156249761581421
      vertex 0.07037821412086487 -2.9802322387695312e-08 -0.4156249761581421
    endloop
  endfacet
  facet normal -0.3826834559440613 0.9238795638084412 2.1434749442050816e-07
    outer loop
      vertex 0.07037818431854248 -0.4117646813392639 -0.0038603544235229492
      vertex 0.07037821412086487 -0.4117646813392639 0.078860342502594
      vertex 0.3615397810935974 -0.2911616265773773 0.07886037230491638
      vertex 0.3615397810935974 -0.29116159677505493 -0.0038603544235229492
    endloop
  endfacet
  facet normal -0.9238795638084412 0.3826833963394165 7.14491577014087e-08
    outer loop
      vertex 0.3615397810935974 -0.29116159677505493 -0.0038603544235229492
      vertex 0.3615397810935974 -0.2911616265773773 0.07886037230491638
      vertex 0.482142835855484 -5.960464477539063e-08 0.07886037230491638
      vertex 0.482142835855484 -5.960464477539063e-08 -0.0038603544235229492
    endloop
  endfacet
  facet normal -0.37642791867256165 -0.18007004261016846 -0.9087775349617004
    outer loop
      vertex 0.07037824392318726 -5.960464477539063e-08 0.49062496423721313
      vertex 0.07037821412086487 2.9802322387695312e-08 0.49062496423721313
      vertex 0.3615397810935974 4.470348358154297e-08 0.37002190947532654
      vertex 0.3615397810935974 -5.960464477539063e-08 0.3700219392776489
    endloop
  endfacet
  facet normal -0.9124671220779419 -0.15669426321983337 -0.3779561519622803
    outer loop
      vertex 0.3615397810935974 -5.960464477539063e-08 0.3700219392776489
      vertex 0.3615397810935974 4.470348358154297e-08 0.37002190947532654
      vertex 0.482142835855484 5.960464477539063e-08 0.0788603127002716
      vertex 0.482142835855484 -5.960464477539063e-08 0.07886037230491638
    endloop
  endfacet
  facet normal -1.2596923681940098e-07 0.9238795638084412 0.3826834559440613
    outer loop
      vertex -0.07037821412086487 -0.4117646813392639 -0.0038603544235229492
      vertex 0.07037818431854248 -0.4117646813392639 -0.0038603544235229492
      vertex 0.07037819921970367 -0.29116159677505493 -0.2950219213962555
      vertex -0.07037822902202606 -0.2911616265773773 -0.2950219511985779
    endloop
  endfacet
  facet normal -1.679589587411101e-07 0.3826833665370941 0.9238795638084412
    outer loop
      vertex -0.07037822902202606 -0.2911616265773773 -0.2950219511985779
      vertex 0.07037819921970367 -0.29116159677505493 -0.2950219213962555
      vertex 0.07037821412086487 -2.9802322387695312e-08 -0.4156249761581421
      vertex -0.07037824392318726 -5.960464477539063e-08 -0.4156249761581421
    endloop
  endfacet
  facet normal 2.519384452170925e-07 0.3826834261417389 -0.9238795638084412
    outer loop
      vertex -0.07037821412086487 -2.9802322387695312e-08 0.49062496423721313
      vertex 0.07037824392318726 -5.960464477539063e-08 0.49062496423721313
      vertex 0.07037822902202606 -0.2911616265773773 0.3700219392776489
      vertex -0.07037816941738129 -0.29116159677505493 0.37002187967300415
    endloop
  endfacet
  facet normal 1.6795900137367425e-07 0.9238795638084412 -0.3826834559440613
    outer loop
      vertex -0.07037816941738129 -0.29116159677505493 0.37002187967300415
      vertex 0.07037822902202606 -0.2911616265773773 0.3700219392776489
      vertex 0.07037821412086487 -0.4117646813392639 0.078860342502594
      vertex -0.07037818431854248 -0.4117646813392639 0.078860342502594
    endloop
  endfacet
  facet normal 0.0 0.0 -1.0
    outer loop
      vertex -0.08823537826538086 0.08823537826538086 -0.5
      vertex 0.08823537826538086 0.08823537826538086 -0.5
      vertex 0.08823537826538086 -0.08823537826538086 -0.5
      vertex -0.08823537826538086 -0.08823537826538086 -0.5
    endloop
  endfacet
  facet normal -1.0 -0.0 0.0
    outer loop
      vertex -0.5 -0.08823537826538086 -0.08823537826538086
      vertex -0.5 -0.08823537826538086 0.08823537826538086
      vertex -0.5 0.08823537826538086 0.08823537826538086
      vertex -0.5 0.08823537826538086 -0.08823537826538086
    endloop
  endfacet
  facet normal 0.0 -1.0 0.0
    outer loop
      vertex 0.08823537826538086 -0.5 -0.08823537826538086
      vertex 0.08823537826538086 -0.5 0.08823537826538086
      vertex -0.08823537826538086 -0.5 0.08823537826538086
      vertex -0.08823537826538086 -0.5 -0.08823537826538086
    endloop
  endfacet
  facet normal 0.0 1.0 0.0
    outer loop
      vertex 0.07037818431854248 -0.4117646813392639 -0.0038603544235229492
      vertex -0.07037821412086487 -0.4117646813392639 -0.0038603544235229492
      vertex -0.07037818431854248 -0.4117646813392639 0.078860342502594
      vertex 0.07037821412086487 -0.4117646813392639 0.078860342502594
    endloop
  endfacet
  facet normal 1.0 0.0 0.0
    outer loop
      vertex -0.482142835855484 -5.960464477539063e-08 -0.003860384225845337
      vertex -0.482142835855484 5.960464477539063e-08 -0.0038603544235229492
      vertex -0.482142835855484 5.960464477539063e-08 0.07886037230491638
      vertex -0.482142835855484 -5.960464477539063e-08 0.0788603127002716
    endloop
  endfacet
  facet normal 0.0 0.0 0.9999999403953552
    outer loop
      vertex -0.07037821412086487 2.9802322387695312e-08 -0.4156249761581421
      vertex -0.07037824392318726 -5.960464477539063e-08 -0.4156249761581421
      vertex 0.07037821412086487 -2.9802322387695312e-08 -0.4156249761581421
      vertex 0.07037824392318726 5.960464477539063e-08 -0.4156249761581421
    endloop
  endfacet
  facet normal 0.0 -0.0 1.0
    outer loop
      vertex 0.08823537826538086 0.08823537826538086 0.5
      vertex -0.08823537826538086 0.08823537826538086 0.5
      vertex -0.08823537826538086 -0.08823537826538086 0.5
      vertex 0.08823537826538086 -0.08823537826538086 0.5
    endloop
  endfacet
  facet normal 0.0 0.0 -0.9999999403953552
    outer loop
      vertex 0.07037821412086487 2.9802322387695312e-08 0.49062496423721313
      vertex 0.07037824392318726 -5.960464477539063e-08 0.49062496423721313
      vertex -0.07037821412086487 -2.9802322387695312e-08 0.49062496423721313
      vertex -0.07037824392318726 5.960464477539063e-08 0.49062496423721313
    endloop
  endfacet
  facet normal 0.0 1.0 0.0
    outer loop
      vertex -0.08823537826538086 0.5 -0.08823537826538086
      vertex -0.08823537826538086 0.5 0.08823537826538086
      vertex 0.08823537826538086 0.5 0.08823537826538086
      vertex 0.08823537826538086 0.5 -0.08823537826538086
    endloop
  endfacet
  facet normal 0.0 -1.0 -0.0
    outer loop
      vertex -0.07037818431854248 0.4117646813392639 -0.0038603544235229492
      vertex 0.07037821412086487 0.4117646813392639 -0.0038603544235229492
      vertex 0.07037818431854248 0.4117646813392639 0.078860342502594
      vertex -0.07037821412086487 0.4117646813392639 0.078860342502594
    endloop
  endfacet
  facet normal 1.0 -0.0 0.0
    outer loop
      vertex 0.5 0.08823537826538086 -0.08823537826538086
      vertex 0.5 0.08823537826538086 0.08823537826538086
      vertex 0.5 -0.08823537826538086 0.08823537826538086
      vertex 0.5 -0.08823537826538086 -0.08823537826538086
    endloop
  endfacet
  facet normal -1.0 0.0 -0.0
    outer loop
      vertex 0.482142835855484 5.960464477539063e-08 -0.003860384225845337
      vertex 0.482142835855484 -5.960464477539063e-08 -0.0038603544235229492
      vertex 0.482142835855484 -5.960464477539063e-08 0.07886037230491638
      vertex 0.482142835855484 5.960464477539063e-08 0.0788603127002716
    endloop
  endfacet
endsolid Drawer_Body
